<?xml version="1.0" standalone="no"?>
<!DOCTYPE svg PUBLIC "-//W3C//DTD SVG 1.1//EN" "http://www.w3.org/Graphics/SVG/1.1/DTD/svg11.dtd" >
<svg xmlns="http://www.w3.org/2000/svg">
<metadata>
Created by FontForge 20120731 at Wed Oct 12 15:06:27 2016
 By admin
</metadata>
<defs>
<font id="iconfont" horiz-adv-x="1024" >
  <font-face 
    font-family="iconfont"
    font-weight="500"
    font-stretch="normal"
    units-per-em="1024"
    panose-1="2 0 6 3 0 0 0 0 0 0"
    ascent="896"
    descent="-128"
    x-height="792"
    bbox="0 -224 1025.26 896"
    underline-thickness="50"
    underline-position="-100"
    unicode-range="U+0078-E632"
  />
<missing-glyph horiz-adv-x="374" 
d="M34 0v682h272v-682h-272zM68 34h204v614h-204v-614z" />
    <glyph glyph-name=".notdef" horiz-adv-x="374" 
d="M34 0v682h272v-682h-272zM68 34h204v614h-204v-614z" />
    <glyph glyph-name=".null" horiz-adv-x="0" 
 />
    <glyph glyph-name="nonmarkingreturn" horiz-adv-x="341" 
 />
    <glyph glyph-name="x" unicode="x" horiz-adv-x="1001" 
d="M281 543q-27 -1 -53 -1h-83q-18 0 -36.5 -6t-32.5 -18.5t-23 -32t-9 -45.5v-76h912v41q0 16 -0.5 30t-0.5 18q0 13 -5 29t-17 29.5t-31.5 22.5t-49.5 9h-133v-97h-438v97zM955 310v-52q0 -23 0.5 -52t0.5 -58t-10.5 -47.5t-26 -30t-33 -16t-31.5 -4.5q-14 -1 -29.5 -0.5
t-29.5 0.5h-32l-45 128h-439l-44 -128h-29h-34q-20 0 -45 1q-25 0 -41 9.5t-25.5 23t-13.5 29.5t-4 30v167h911zM163 247q-12 0 -21 -8.5t-9 -21.5t9 -21.5t21 -8.5q13 0 22 8.5t9 21.5t-9 21.5t-22 8.5zM316 123q-8 -26 -14 -48q-5 -19 -10.5 -37t-7.5 -25t-3 -15t1 -14.5
t9.5 -10.5t21.5 -4h37h67h81h80h64h36q23 0 34 12t2 38q-5 13 -9.5 30.5t-9.5 34.5q-5 19 -11 39h-368zM336 498v228q0 11 2.5 23t10 21.5t20.5 15.5t34 6h188q31 0 51.5 -14.5t20.5 -52.5v-227h-327z" />
    <glyph glyph-name="uniE600" unicode="&#xe600;" 
d="M237 588h83v-88h-83v88zM359 565h395v-55h-395v55zM721 49l-92 86v-84l92 -87l189 176v85zM237 410h83v-88h-83v88zM359 387h395v-55h-395v55zM237 232h83v-88h-83v88zM359 208h213v-54h-213v54zM547 -2h-2h-359q-14 0 -19 4.5t-5 18.5v632q0 14 5 18.5t19 4.5h632
q14 0 18.5 -4.5t4.5 -18.5v-11v-336q1 -10 8 -16.5t16 -6.5q10 0 17 7t8 17v379q0 16 -11.5 27.5t-27.5 11.5h-698q-16 0 -27.5 -11.5t-11.5 -27.5v-698q0 -16 11.5 -27.5t27.5 -11.5h392h2q10 0 17.5 7t7.5 17.5t-7.5 17.5t-17.5 7z" />
    <glyph glyph-name="uniE601" unicode="&#xe601;" 
d="M760 -83q-10 0 -17.5 8t-9.5 19l-7 28q-11 4 -21 9l-26 -16q-8 -6 -19 -6q-12 0 -19 7l-17 17q-15 15 -1 38l17 27q-4 8 -7 16l-29 8q-11 2 -18.5 9t-7.5 18v23q0 11 7.5 19t18.5 10l29 6q2 9 7 18l-17 27q-14 23 1 38l17 17q7 7 19 7q11 0 19 -6l26 -16q10 5 21 8l7 29
q2 11 9.5 19t17.5 8h24q10 0 18 -8t10 -19l6 -29q10 -3 19 -8l26 16q8 6 19 6q12 0 19 -7l17 -17q15 -15 0 -38l-15 -26q5 -10 8 -19l29 -6q10 -2 18 -10t8 -19v-23q0 -11 -8 -18t-19 -9l-29 -8q-3 -9 -7 -17l15 -26q15 -23 0 -38l-17 -17q-7 -7 -19 -7q-11 0 -19 6l-26 16
q-9 -5 -18 -8l-7 -29q-2 -11 -10 -19t-18 -8h-24zM784 -57q2 1 3 5l9 43q1 2 3 2l10 4q9 3 18 7l10 5q1 1 1.5 1t1.5 -1l37 -23q2 -2 5 -2h1l16 16q0 3 -2 7l-22 37q-1 2 -1 3l5 10q5 8 8 17l3 10q0 2 2 2l41 10q5 1 7 4v22q-1 3 -5 4h-1l-41 9q-2 0 -3 2l-3 11q-3 9 -8 18
l-4 10q-1 1 0 3l22 36q2 4 2 8l-16 16h-1q-3 0 -5 -2h-1l-36 -23q-1 -1 -1.5 -1t-1.5 1l-10 5q-9 5 -18 8l-11 3q-1 0 -2 2l-9 42v1q-1 4 -4 5h-22q-3 -2 -3 -6l-11 -42q0 -2 -2 -2l-10 -3q-10 -3 -20 -9l-9 -5h-2h-2l-37 24q-2 2 -5 2h-2l-16 -16q1 -3 3 -7l23 -39
q1 -1 0 -3l-5 -9q-4 -9 -7 -17l-3 -11q-1 -2 -2 -2l-42 -9h-1q-4 -1 -5 -4v-22q2 -3 7 -4l41 -10q2 0 2 -2l4 -10q2 -8 6 -16l5 -9q1 -2 0 -4l-23 -38q-2 -4 -3 -7l17 -16v0h1q3 0 5 2l2 1q2 1 5.5 3t7.5 5t8 5.5t7 4.5t5 3l2 2h2h2l9 -6q10 -5 20 -8l10 -3q2 -1 2 -2
l11 -41q1 -5 3 -7h23zM772 32q-33 0 -56.5 23.5t-23.5 56t23.5 56t56.5 23.5t56.5 -23.5t23.5 -56t-23.5 -56t-56.5 -23.5zM772 166q-23 0 -39 -16t-16 -38.5t16 -38.5t39 -16t39 16t16 38.5t-16 38.5t-39 16zM550 -71h-357q-56 0 -95.5 39.5t-39.5 95.5v484q0 55 39.5 95
t95.5 40h592q55 0 95 -40t40 -95v-208q0 -7 -5.5 -12.5t-13 -5.5t-12.5 5.5t-5 12.5v208q0 41 -29 70t-70 29h-592q-41 0 -70 -29t-29 -70v-484q0 -41 29 -70.5t70 -29.5h357q7 0 12.5 -5t5.5 -12.5t-5.5 -12.5t-12.5 -5zM381.5 257q-63.5 0 -108.5 45t-45 108.5t45 108.5
t108.5 45t108.5 -45t45 -108.5t-45 -108.5t-108.5 -45zM381.5 528q-48.5 0 -83 -34.5t-34.5 -83t34.5 -83t83 -34.5t83 34.5t34.5 83t-34.5 83t-83 34.5zM171.5 47q-7.5 0 -12.5 5.5t-5 12.5q0 94 67 161t161 67q54 0 102 -24t80 -67q5 -6 4 -13.5t-7 -12t-13.5 -3.5
t-12.5 7q-27 37 -67 57t-86 20q-80 0 -136 -56.5t-56 -135.5q0 -7 -5.5 -12.5t-13 -5.5zM811 454h-174q-7 0 -12.5 5t-5.5 12.5t5.5 13t12.5 5.5h174q7 0 12.5 -5.5t5.5 -13t-5.5 -12.5t-12.5 -5zM811 340h-174q-7 0 -12.5 5t-5.5 12.5t5.5 13t12.5 5.5h174q7 0 12.5 -5.5
t5.5 -13t-5.5 -12.5t-12.5 -5z" />
    <glyph glyph-name="uniE602" unicode="&#xe602;" 
d="M512 -121q-114 0 -211 56.5t-153.5 153.5t-56.5 211t56.5 211t153.5 153.5t211 56.5t211 -56.5t153.5 -153.5t56.5 -211t-56.5 -211t-153.5 -153.5t-211 -56.5zM512 675q-102 0 -188.5 -50t-136.5 -136.5t-50 -188.5t50 -188.5t136.5 -136.5t188.5 -50t188.5 50
t136.5 136.5t50 188.5t-50 188.5t-136.5 136.5t-188.5 50zM512 84q-14 0 -24 10t-10 24t10 24t24 10t24 -10t10 -24t-10 -24t-24 -10zM512 198q-14 0 -24 10t-10 24v273q0 14 10 24t24 10t24 -10t10 -24v-273q0 -14 -10 -24t-24 -10z" />
    <glyph glyph-name="uniE603" unicode="&#xe603;" horiz-adv-x="1028" 
d="M409 58l-214 -237q-8 -8 -7.5 -19t9.5 -19q7 -7 18 -7q12 0 20 9l214 236q8 8 7.5 19.5t-9 19t-19.5 7t-19 -8.5zM631 58q-8 8 -19.5 8.5t-19.5 -7t-8.5 -19t6.5 -19.5l214 -236q9 -9 21 -9q10 0 18 7q8 8 8.5 19t-6.5 19zM967 704h-469v64q0 12 -8 20t-19 8t-19 -8
t-8 -20v-64h-375q-23 0 -38.5 -16t-15.5 -38v-527q0 -22 15.5 -38t38.5 -16h898q23 0 38.5 16t15.5 38v527q0 22 -15.5 38t-38.5 16zM967 123h-898v527h898v-527zM348 542.5q0 -11.5 8 -19.5t20 -8h479q11 0 19 8t8 19.5t-8 19t-19 7.5h-479q-12 0 -20 -7.5t-8 -19zM855 414
h-479q-12 0 -20 -8t-8 -19.5t8 -19.5t20 -8h479q11 0 19 8t8 19.5t-8 19.5t-19 8zM855 263h-479q-12 0 -20 -8t-8 -19.5t8 -19.5t20 -8h479q11 0 19 8t8 19.5t-8 19.5t-19 8zM218.5 479q26.5 0 45 18.5t18.5 44.5t-18.5 45t-45 19t-45 -19t-18.5 -45t18.5 -44.5t45 -18.5z
M218.5 551q8.5 0 8.5 -9t-8.5 -9t-8.5 9t8.5 9zM218.5 323q26.5 0 45 18.5t18.5 45t-18.5 45t-45 18.5t-45 -18.5t-18.5 -45t18.5 -45t45 -18.5zM218.5 395q8.5 0 8.5 -8.5t-8.5 -8.5t-8.5 8.5t8.5 8.5zM217.5 303q-26.5 0 -46 -19.5t-19.5 -46t19.5 -46t46 -19.5t46 19.5
t19.5 46t-19.5 46t-46 19.5zM217.5 227q-4.5 0 -7.5 3t-3 7.5t3 7.5t7.5 3t7.5 -3t3 -7.5t-3 -7.5t-7.5 -3z" />
    <glyph glyph-name="uniE604" unicode="&#xe604;" horiz-adv-x="1025" 
d="M894 263q-9 0 -15.5 -6t-6.5 -15v-348q0 -18 -12.5 -31t-30.5 -13h-610q-18 0 -31 13t-13 31v348q0 9 -6.5 15t-15.5 6t-15 -6t-6 -15v-348q0 -36 25 -61.5t61 -25.5h611q36 0 61.5 25.5t25.5 60.5v349q0 9 -6.5 15t-15.5 6zM1019 348l-434 435q-25 25 -61 25t-61 -24
l-435 -435q-5 -7 -5 -15.5t6 -14.5t14.5 -6t15.5 5l434 434q13 13 30.5 13t30.5 -13l435 -434q15 -13 29 1t1 29z" />
    <glyph glyph-name="uniE605" unicode="&#xe605;" 
d="M886 544v-533h-747v746h635v75h-654q-23 0 -39.5 -16.5t-16.5 -39.5v-784q0 -23 16.5 -39.5t39.5 -16.5h785q23 0 39.5 16.5t16.5 39.5v552h-75zM774 354q12 13 12 31t-12.5 31t-30.5 13h-188v188q0 18 -13 30.5t-31 12.5t-30.5 -12.5t-12.5 -30.5v-188h-188
q-18 0 -31 -13t-13 -31t13 -30.5t31 -12.5h187v-188q0 -18 13 -31t31 -13t31 13t13 31v187h188q18 0 31 13zM774 354z" />
    <glyph glyph-name="uniE606" unicode="&#xe606;" 
d="M307 576q9 -24 25 -38q18 -17 40 -17t39 17q16 14 25 38q16 13 18 32q3 21 -6 32q-2 1 -4 3q-5 29 -23.5 46t-47.5 17q-30 0 -49.5 -17t-24.5 -46l-3 -3q-10 -11 -7 -32q3 -19 18 -32zM328 617l1 14q3 45 44 45q38 0 42 -45v-14h9v-5q-1 -9 -8 -13l-5 -2l-2 -6
q-6 -18 -16 -28.5t-21 -10.5q-12 0 -22 10.5t-16 28.5l-2 6l-5 2q-6 4 -8 13v5h9zM474 173v25q19 5 31.5 19.5t13.5 33.5q43 52 77 94q36 43 55 67q12 15 18 23l6 6q1 1 1 2q9 12 -1 21q-11 10 -22 0v-1l-133 -163v144q0 30 -20 54q-20 23 -50 29l-36 8l-42 -85l-43 85
l-36 -8q-30 -6 -50 -29q-19 -24 -19 -54v-187q0 -21 12.5 -37.5t32.5 -21.5v-25h205zM254 257v187q0 19 12.5 34t32.5 19l13 3l60 -119l59 119l13 -3q20 -4 32.5 -19t12.5 -34v-187q0 -12 -9 -21t-21 -9h-15v-23h-144v23h-16q-12 0 -21 9t-9 21zM182 204h2q6 0 10.5 4.5
t4.5 11t-4.5 11t-10.5 4.5h-2q-42 0 -64 31q-21 29 -21 80v344q0 46 32.5 78.5t78.5 32.5h604q46 0 78.5 -32.5t32.5 -78.5v-344q0 -46 -32.5 -78.5t-78.5 -32.5h-253q-7 0 -11.5 -4.5t-4.5 -11t4.5 -11t11.5 -4.5h253q59 0 100.5 41.5t41.5 100.5v344q0 59 -41.5 100.5
t-100.5 41.5h-604q-58 0 -100 -41.5t-42 -100.5v-344q0 -66 31.5 -104t84.5 -38zM259 160h-95q-40 0 -69 -29t-29 -70v-124h291v124q0 41 -28.5 70t-69.5 29zM326 -33h-229v94q0 28 20 48t47 20h95q28 0 47.5 -20t19.5 -48v-94zM559 160h-95q-40 0 -69 -29t-29 -70v-124h291
v124q0 41 -29 70t-69 29zM626 -33h-229v94q0 28 20 48t47 20h95q28 0 47.5 -20t19.5 -48v-94zM859 160h-94q-41 0 -70 -29t-29 -70v-124h291v124q0 41 -29 70t-69 29zM926 -33h-229v94q0 28 20 48t48 20h94q28 0 47.5 -20t19.5 -48v-94z" />
    <glyph glyph-name="uniE607" unicode="&#xe607;" 
d="M777 550l-265 -266l-265 266q-9 10 -22.5 10t-23 -9.5t-9.5 -23t9 -22.5l287 -288q9 -9 24 -9q15 -1 24 9l287 288q9 9 9 22.5t-9.5 23t-23 9.5t-22.5 -10z" />
    <glyph glyph-name="uniE608" unicode="&#xe608;" 
d="M982 583q-39 92 -109.5 162.5t-161.5 108.5q-95 40 -198.5 40t-198.5 -40q-91 -38 -161.5 -108.5t-109.5 -162.5q-40 -94 -40 -198t40 -198q39 -92 109.5 -162.5t161.5 -109.5q95 -40 198.5 -40t198.5 40q91 39 161.5 109.5t109.5 162.5q40 94 40 198t-40 198zM942 203
q-35 -83 -99.5 -148t-148.5 -100q-87 -37 -182 -37t-181 37q-84 35 -148.5 100t-100.5 148q-36 87 -36 182t36 182q36 83 100.5 147.5t148.5 100.5q86 37 181 37t182 -37q84 -36 148.5 -100.5t99.5 -147.5q37 -87 37 -182t-37 -182zM389 171l302 198l-302 232v-430z" />
    <glyph glyph-name="uniE609" unicode="&#xe609;" 
d="M791 776h-56v56h-56v-56h-336v56h-56v-56h-56q-46 0 -79 -33t-33 -79v-616q0 -46 33 -79t79 -33h560q46 0 79 33t33 79v616q0 46 -33 79t-79 33zM231 720h56v-56h56v56h336v-56h56v56h56q23 0 39.5 -16.5t16.5 -39.5v-112h-672v112q0 23 16.5 39.5t39.5 16.5zM791 -8
h-560q-23 0 -39.5 16.5t-16.5 39.5v448h672v-448q0 -23 -16.5 -39.5t-39.5 -16.5zM287 384h448v-56h-448v56zM287 214h448v-56h-448v56z" />
    <glyph glyph-name="uniE60A" unicode="&#xe60a;" 
d="M832 554v43q0 18 -12.5 30t-29.5 12h-556q-17 0 -29.5 -12t-12.5 -30v-43q0 -8 -6.5 -14.5t-15.5 -6.5q-8 0 -14.5 6.5t-6.5 14.5v43q0 35 25 60t60 25h107v43q0 18 12.5 30t29.5 12h256q18 0 30.5 -12t12.5 -30v-43h106q36 0 61 -25t25 -60v-43q0 -8 -6.5 -14.5
t-15.5 -6.5q-8 0 -14 6.5t-6 14.5zM631 726h-238q-4 0 -6.5 -3t-2.5 -6v-34h256v34q0 3 -2.5 6t-6.5 3zM448 470v-342h-42v342q0 8 6 14.5t15 6.5t15 -6.5t6 -14.5zM618 470v-342h-42v342q0 8 6.5 14.5t15.5 6.5q8 0 14 -6.5t6 -14.5zM278 86q0 -18 12 -30.5t30 -12.5h384
q18 0 30 12.5t12 30.5v426q0 9 6.5 15.5t15.5 6.5t15.5 -6.5t6.5 -15.5v-426q0 -36 -25.5 -61t-60.5 -25h-384q-35 0 -60.5 25t-25.5 61v426q0 9 6.5 15.5t15.5 6.5t15.5 -6.5t6.5 -15.5v-426z" />
    <glyph glyph-name="uniE60B" unicode="&#xe60b;" 
d="M891 799h-758q-33 0 -56.5 -23.5t-23.5 -56.5v-504q0 -33 23.5 -56.5t56.5 -23.5h299v-102h-99q-14 0 -23 -9t-9 -22.5t9 -23t23 -9.5h390q14 0 23 9.5t9 23t-9 22.5t-23 9h-99v102h267q33 0 56.5 23.5t23.5 56.5v504q0 33 -23.5 56.5t-56.5 23.5zM560 33h-64v102h64
v-102zM907 368v-64v-89q0 -7 -5 -11.5t-11 -4.5h-758q-6 0 -11 4.5t-5 11.5v89v64v351q0 6 5 11t11 5h758q6 0 11 -5t5 -11v-351zM737 635q-10 8 -22.5 6.5t-22.5 -11.5l-246 -250q-12 -12 -24 0l-92 90q-10 10 -26 9t-25 -14q-8 -11 -6.5 -23.5t11.5 -21.5l126 -124
q10 -11 24 -11t24 11l284 288q11 11 9.5 26.5t-14.5 24.5z" />
    <glyph glyph-name="uniE60C" unicode="&#xe60c;" 
d="M934 702q-15 2 -42 2q-114 0 -247 -45q51 29 111 46.5t86 20.5t36 3q7 1 12.5 6.5t5 12.5t-6 12.5t-12.5 4.5q-7 0 -19.5 -1t-43.5 -6.5t-62 -14.5t-72 -26.5t-77 -40.5q27 25 62.5 46.5t63.5 33.5t57.5 21.5t40 12t16.5 4.5q8 1 12 7t2.5 13.5t-7.5 11.5t-13 3
q-13 -2 -30.5 -6.5t-62.5 -21.5t-83.5 -38.5t-81 -60.5t-67.5 -86q-25 47 -67.5 86t-81 60.5t-83 38t-63 21t-29.5 6.5q-8 2 -14 -2.5t-7.5 -11.5t3 -13t11.5 -7.5t17 -4t40.5 -12t58 -21.5t62.5 -34t62 -47q-36 23 -77 41t-72 26.5t-62 14t-43 7t-19 1.5q-8 0 -13.5 -5
t-5.5 -12.5t5 -13t12 -5.5q126 -10 233 -71q-133 46 -247 46q-27 0 -42 -2q-11 -2 -17.5 -10t-5.5 -19l44 -597q1 -10 8.5 -17t17.5 -7q62 -3 122.5 -15.5t99 -26t74.5 -32t46 -25t17 -11.5t16 -5q6 0 12 3q4 2 6 4q14 10 36 22t68.5 33t113.5 35.5t139 17.5q10 0 17.5 7.5
t8.5 17.5l44 596q1 11 -5.5 19.5t-17.5 9.5zM485 13q-142 80 -322 91l-41 546h10q164 0 353 -95v-542zM861 105q-179 -12 -322 -92v543q189 95 353 95q7 0 10 -1zM861 105z" />
    <glyph glyph-name="uniE60D" unicode="&#xe60d;" 
d="M145 303v183h-40v-183h40zM186 262h-122v-40h122v40zM898 832h-732q-26 0 -43.5 -18t-17.5 -43v-163h40v143q0 16 12 28t29 12h61v-773h-61q-17 0 -29 12t-12 29v122h-40v-143q0 -25 17.5 -43t43.5 -18h732q26 0 43.5 18t17.5 43v733q0 25 -17.5 43t-43.5 18zM919 59
q0 -17 -12 -29t-29 -12h-590v773h590q17 0 29 -12t12 -28v-692zM186 567h-122v-40h122v40zM383 160l45 -41l355 408l-45 41zM773 601l39 -36l28 30l-39 36z" />
    <glyph glyph-name="uniE60E" unicode="&#xe60e;" 
d="M344 456h336q9 0 16 7t7 17t-7 17t-16 7h-336q-9 0 -16 -7t-7 -17t7 -17t16 -7zM440 623h144q30 0 51 21t21 51t-21 51t-51 21h-144q-30 0 -51 -21t-21 -51t21 -51t51 -21zM440 719h144q10 0 17 -7t7 -17t-7 -17t-17 -7h-144q-10 0 -17 7t-7 17t7 17t17 7zM703 336
q0 10 -7 17t-16 7h-336q-9 0 -16 -7t-7 -17t7 -17t16 -7h336q9 0 16 7t7 17zM775 719h-72v-48h72q10 0 17 -7t7 -17v-574q0 -10 -7 -17t-17 -7h-526q-10 0 -17 7t-7 17v574q0 10 7 17t17 7h72v48h-72q-30 0 -51 -21t-21 -51v-574q0 -30 21 -51t51 -21h526q30 0 51 21t21 51
v574q0 30 -21 51t-51 21zM344 216q-9 0 -16 -7t-7 -16.5t7 -16.5t16 -7h192q10 0 17 7t7 16.5t-7 16.5t-17 7h-192z" />
    <glyph glyph-name="uniE60F" unicode="&#xe60f;" 
d="M672 176h-328q-12 0 -20.5 8t-8.5 20v394q0 12 8.5 20.5t20.5 8.5h15q5 0 8.5 -3.5t3.5 -8.5t-3.5 -9t-8.5 -4h-15q-4 0 -4 -4v-394q0 -4 4 -4h328q4 0 4 4v394q0 4 -4 4h-12q-5 0 -8.5 4t-3.5 9t3.5 8.5t8.5 3.5h12q12 0 20.5 -8.5t8.5 -20.5v-394q0 -12 -8.5 -20
t-20.5 -8zM562 468h-120q-5 0 -8.5 3.5t-3.5 8.5t3.5 9t8.5 4h120q5 0 8.5 -4t3.5 -9t-3.5 -8.5t-8.5 -3.5zM633 387h-191q-5 0 -8.5 3.5t-3.5 9t3.5 9t8.5 3.5h191q6 0 9.5 -3.5t3.5 -9t-3.5 -9t-9.5 -3.5zM633 306h-191q-5 0 -8.5 3.5t-3.5 9t3.5 9t8.5 3.5h191
q6 0 9.5 -3.5t3.5 -9t-3.5 -9t-9.5 -3.5zM393 468h-11q-5 0 -8.5 3.5t-3.5 8.5t3.5 9t8.5 4h11q5 0 8.5 -4t3.5 -9t-3.5 -8.5t-8.5 -3.5zM393 387h-11q-5 0 -8.5 3.5t-3.5 9t3.5 9t8.5 3.5h11q5 0 8.5 -3.5t3.5 -9t-3.5 -9t-8.5 -3.5zM393 306h-11q-5 0 -8.5 3.5t-3.5 9
t3.5 9t8.5 3.5h11q5 0 8.5 -3.5t3.5 -9t-3.5 -9t-8.5 -3.5zM721 679h-110h-58v27q0 13 -15 13h-60q-15 0 -15 -13v-27h-59h-110q-11 0 -19.5 -8.5t-8.5 -20.5v-492q0 -12 8.5 -20.5t19.5 -8.5h427q12 0 20.5 8.5t8.5 20.5v492q0 12 -8.5 20.5t-20.5 8.5zM487 694h41v-15h-41
v15zM405 655h73h60h73v-52h-4v2q0 6 -4.5 10t-12.5 4h-164q-8 0 -12.5 -4t-4.5 -10v-2h-4v52zM726 158q0 -4 -5 -4h-427q-4 0 -4 4v492q0 5 4 5h87v-62q0 -15 23 -15h5v-2q0 -6 4.5 -10t12.5 -4h164q8 0 12.5 4t4.5 10v2h4q24 0 24 15v62h86q5 0 5 -5v-492z" />
    <glyph glyph-name="uniE610" unicode="&#xe610;" 
d="M378 499q7 0 13 6l102 102v-319q0 -8 5.5 -13.5t13.5 -5.5t13.5 5.5t5.5 13.5v319l102 -102q6 -6 13.5 -6t13.5 6t6 14t-6 13l-135 134q-1 2 -3 3h-1q0 1 -1 1t-1 1h-1h-1l-1 1h-1q-4 1 -7 0q-1 0 -1.5 -0.5l-0.5 -0.5h-2q-1 0 -2 -2h-2l-3 -3l-134 -134q-6 -6 -6 -14
t6 -13q8 -6 15 -6zM813 352q-8 0 -13.5 -5.5t-5.5 -13.5v-149q0 -20 -15 -35t-35 -15h-464q-20 0 -35 15t-15 35v149q0 8 -5.5 13.5t-13.5 5.5t-13.5 -5.5t-5.5 -13.5v-149q0 -36 26 -62t62 -26h464q37 0 63 26t26 62v149q-1 8 -6.5 13.5t-13.5 5.5z" />
    <glyph glyph-name="uniE611" unicode="&#xe611;" 
d="M787 815h-322q-5 13 -18 13h-167q-13 0 -18 -13h-25q-47 0 -80 -31t-33 -75v-651q0 -48 33 -82.5t80 -34.5h550q47 0 80 34.5t33 82.5v651q0 44 -33 75t-80 31zM237 776h24v-412q0 -3 1 -7q3 -7 10.5 -10.5t15.5 -0.5q3 2 6 5l70 69l64 -64q4 -15 19 -15q8 0 14 6t6 14
v415h320q31 0 52.5 -23t21.5 -55v-423h-95q-46 0 -79 -34.5t-33 -83.5v-83h-417q-31 0 -52.5 20t-21.5 48v556q0 32 21.5 55t52.5 23zM428 411l-51 51q-5 5 -13.5 5t-13.5 -5l-50 -51v378h128v-378zM693 100v57q0 33 21.5 56t51.5 23h66zM163 61q32 -26 74 -26h436q8 0 14 5
q2 1 3 3l171 166v-114q0 -28 -21.5 -48t-52.5 -20h-541q-9 0 -14.5 -6t-5.5 -14t5.5 -13.5t14.5 -5.5h541q24 0 47 10q-20 -18 -47 -18h-550q-31 0 -52.5 23t-21.5 55v3z" />
    <glyph glyph-name="uniE612" unicode="&#xe612;" 
d="M522.5 853q-97.5 0 -186.5 -38t-153 -102t-102 -153t-38 -186.5t38 -186.5t102 -153.5t153 -102.5t186.5 -38t186.5 38t153.5 102.5t102.5 153.5t38 186.5t-38 186.5t-102.5 153t-153.5 102t-186.5 38zM523 -43q-113 0 -209 56t-151.5 151.5t-55.5 208.5t55.5 209
t151.5 151.5t209 55.5t208.5 -55.5t151.5 -151.5t56 -209t-56 -208.5t-151.5 -151.5t-208.5 -56zM740 610q9 9 9 22t-9 22t-22 9t-23 -9l-173 -173l-171 171q-10 9 -22.5 9t-20.5 -9q-9 -9 -9 -21.5t9 -21.5l183 -183v-21h-160q-14 0 -23 -9t-9 -22.5t9 -23t23 -9.5h160
v-128h-160q-14 0 -23 -9t-9 -22.5t9 -23t23 -9.5h160v-96q0 -13 9 -22.5t22.5 -9.5t23 9.5t9.5 22.5v96h160q13 0 22.5 9.5t9.5 23t-9.5 22.5t-22.5 9h-160v128h160q13 0 22.5 9.5t9.5 23t-9.5 22.5t-22.5 9h-160v20z" />
    <glyph glyph-name="uniE613" unicode="&#xe613;" 
d="M810 384q16 0 27.5 11t11.5 26.5t-11.5 26.5t-27.5 11h-261v22l288 287q11 12 11.5 27.5t-10.5 26.5t-27 10.5t-27 -11.5l-272 -272l-272 272q-11 11 -27 11.5t-27 -10.5t-10.5 -27t11.5 -27l288 -287v-22h-261q-16 0 -27.5 -11t-11.5 -26.5t11.5 -26.5t27.5 -11h261
v-150h-261q-16 0 -27.5 -11t-11.5 -26.5t11.5 -26.5t27.5 -11h261v-185q0 -16 10.5 -27.5t26 -11.5t26.5 11.5t11 27.5v185h261q16 0 27.5 11t11.5 26.5t-11.5 26.5t-27.5 11h-261v150h261z" />
    <glyph glyph-name="uniE614" unicode="&#xe614;" 
d="M877 237l-256 147l256 147q20 10 26.5 33.5t-7.5 43.5q-10 20 -33.5 26.5t-43.5 -7.5l-256 -147v294q5 24 -11 41t-40 17t-41 -17t-17 -41v-294l-256 147q-14 14 -37 7.5t-33 -26.5q-10 -19 -4.5 -43t23.5 -34l256 -147l-256 -147q-20 -10 -26.5 -33.5t7.5 -43.5
q17 -26 51 -26q19 0 26 7l256 147v-294q-5 -24 11 -41t40 -17t41 17t17 41v294l256 -147q6 -7 25 -7q26 0 51 26q6 21 -0.5 44.5t-24.5 32.5z" />
    <glyph glyph-name="uniE615" unicode="&#xe615;" 
d="M573.5 -5q-8.5 0 -14.5 6t-6 14v665q0 13 12.5 18.5t22.5 -4.5l188 -187q6 -6 6 -14.5t-6 -14.5t-14.5 -6t-14.5 6l-153 152v-615q0 -8 -6 -14t-14.5 -6zM430 -5q-8 0 -14 6l-188 182q-6 6 -6.5 14.5t5.5 14.5t14.5 6t14.5 -6l154 -148v607q0 8 6 14t14.5 6t14.5 -6
t6 -14v-656q0 -13 -13 -19q-4 -1 -8 -1z" />
    <glyph glyph-name="uniE616" unicode="&#xe616;" 
d="M550 840q0 -19 19 -38l335 -291l-335 -291q-14 -14 -15 -31.5t9 -31.5q13 -14 31 -15.5t32 8.5l373 330q19 9 19 37q0 19 -19 38l-373 330q-15 13 -34 10.5t-29 -17.5q-3 -7 -6.5 -16t-5 -14t-1.5 -8zM6 840q0 -19 19 -38l335 -291l-335 -291q-14 -14 -15.5 -31.5
t8.5 -31.5q14 -14 32 -15.5t32 8.5l373 330q19 9 19 37q0 19 -19 38l-373 330q-15 13 -34.5 10.5t-29.5 -17.5q-2 -7 -5.5 -16t-5 -14t-1.5 -8z" />
    <glyph glyph-name="uniE617" unicode="&#xe617;" 
d="M749 262l37 -303l-274 130l-274 -130l37 303l-207 222l298 58l146 267l146 -267l298 -58zM631 504l-119 222l-119 -222l-242 -47l168 -185l-30 -251l223 108l223 -108l-30 251l168 185z" />
    <glyph glyph-name="uniE618" unicode="&#xe618;" 
d="M509 810l147 -265l299 -57l-208 -222l38 -300l-276 128l-275 -128l38 300l-208 222l299 57z" />
    <glyph glyph-name="uniE619" unicode="&#xe619;" 
d="M339 269q-11 0 -18.5 8t-7.5 19t7.5 19t18.5 8h329q11 0 19 -8t8 -19t-8 -19t-19 -8h-329zM335 124q-11 0 -18.5 8t-7.5 19t7.5 19t18.5 8h329q11 0 19 -8t8 -19t-8 -19t-19 -8h-329zM187 -61q-37 0 -51 10q-19 15 -19 60v733q0 38 8 50q13 18 62 18h467q18 0 26 -16
t-3 -31q-8 -11 -23 -11h-386h-42h-22h-17h-12v-754h673v11v45v1v35v427q0 14 12 23q8 6 17 6q12 0 21 -8t9 -21v-508q0 -33 -14 -50q-17 -20 -56 -20h-650zM783 785l7 8q13 17 18 22q12 14 32 14q10 0 20 -3q11 -4 23.5 -15t19.5 -23q16 -27 0 -49q-9 -12 -17 -22l-6 -8z
M600 420q-8 0 -13 5q-7 7 -6 21q0 11 5 40t7 38q4 14 13 25q10 14 155 206l6 9l97 -77l-6 -7q-146 -195 -153 -203q-9 -12 -20 -19.5t-38 -20t-38 -15.5q-5 -2 -9 -2z" />
    <glyph glyph-name="uniE61A" unicode="&#xe61a;" 
d="M946 322q0 16 -8.5 27.5t-22.5 13.5q-8 2 -28.5 5t-37.5 6t-20 4q-5 0 -10 4t-6 7q0 2 -12 30q-5 12 5 25q5 8 48 68q7 8 6 23t-11 25l-56 56q-7 7 -20.5 7t-22.5 -7l-72 -51q-1 0 -3 -1t-7.5 -2.5t-9.5 1.5l-34 14q-7 5 -10 20q0 4 -14 82q-2 13 -13 21.5t-24 8.5h-75
q-12 0 -22.5 -9.5t-12.5 -20.5l-14 -84q-1 -7 -3.5 -11.5t-5.5 -5.5l-2 -2l-30 -12q-8 -3 -13.5 -1.5t-17 9t-62.5 43.5q-15 9 -28 7.5t-22 -11t-51 -50.5q-10 -11 -9.5 -26t10.5 -29q11 -15 41 -58q12 -17 9 -27q-2 -6 -12 -28q-3 -8 -8.5 -11t-19.5 -6q-9 -2 -39 -7
t-38 -6q-14 -3 -22.5 -14.5t-8.5 -27.5v-65q0 -35 39 -42q23 -4 74 -12q16 -3 22 -16l9 -22q4 -9 3.5 -15t-8.5 -17q-9 -13 -46 -65q-8 -13 -6 -26.5t11 -22.5q10 -11 49 -49q11 -11 25.5 -12t28.5 8q15 11 65 47q13 9 28 3q5 -2 22 -9q13 -6 17 -24q2 -11 13 -79
q6 -33 41 -33h62q39 0 45 31l14 84q2 13 14 18q5 3 27 12q12 6 27 -6q7 -4 64 -45q28 -19 52 5q11 10 49 48q12 15 12 27.5t-7 23.5t-50 71q-8 11 -2 24q2 5 12 25q5 11 18 13q9 2 84 15q31 5 31 40v66zM909 255q0 -10 -9 -12q-1 0 -12 -2t-23.5 -4t-26 -4.5t-20.5 -3.5
q-29 -5 -38 -28q-4 -8 -11 -27q-10 -25 3 -42q1 -3 14 -21t23.5 -32.5t12.5 -17.5q6 -10 -1 -17l-13 -13l-22 -22l-13 -13q-8 -7 -19 0q-1 1 -13 9t-26 18t-25 18q-23 16 -49 6q-21 -9 -22 -9q-27 -11 -34 -49q-1 -7 -4 -24.5t-5 -30t-3 -15.5q-1 -11 -13 -11h-65
q-11 0 -15 12q-4 13 -12 74q-2 14 -9.5 25.5t-15.5 15.5q-25 10 -28 11q-29 12 -51 -4q-3 -2 -19.5 -14t-29.5 -21.5t-16 -11.5q-11 -7 -18 0l-47 47q-8 8 0 20l41 58q21 29 10 54q-3 6 -4.5 9.5t-2 5t-2 4.5t-4.5 10q-9 21 -38 26q-76 14 -77 14q-12 2 -12 14v66
q0 11 13 13q1 0 15.5 2.5t31.5 5.5t26 5q34 5 43 29l11 27q11 25 -7 50q-44 60 -45 62q-7 11 1 19l13 13l22 22l12 12q9 8 18 1q53 -38 64 -46q24 -17 49 -6q19 8 27 11q24 9 29 40q12 74 12.5 77.5t4 7t7.5 3.5h70q10 0 11 -9l4 -21t7 -40.5t4 -24.5q2 -9 10 -19.5
t16 -13.5q30 -13 31 -13q8 -3 19.5 -2t16.5 4q73 51 76 53q8 6 17 -3l14 -14l22 -22l12 -12q6 -6 1 -14q-1 0 -7.5 -9.5t-13.5 -19.5t-15 -21.5t-12 -16.5q-16 -23 -5 -49l9 -22q12 -28 34 -32q83 -13 84 -14q12 -1 12 -13l-1 -18v-33t1 -17zM527 489q-83 0 -141.5 -58.5
t-58.5 -141.5t58.5 -141.5t141.5 -58.5t141.5 58.5t58.5 141.5t-58.5 141.5t-141.5 58.5zM526.5 124q-68.5 0 -116.5 48.5t-48 117t48 116.5t116.5 48t117 -48t48.5 -116.5t-48.5 -117t-117 -48.5z" />
    <glyph glyph-name="uniE61B" unicode="&#xe61b;" 
d="M737 -85v0l-373 373l373 373q11 10 11 25.5t-11 26t-26 10.5q-16 0 -27 -12l-397 -397q-11 -11 -11 -26t11 -26l398 -398l1 -1v0q10 -10 25 -10t25.5 10.5t10.5 25.5t-10 26z" />
    <glyph glyph-name="uniE61C" unicode="&#xe61c;" 
d="M512 896q-139 0 -257 -68.5t-186.5 -186.5t-68.5 -257t68.5 -257t186.5 -186.5t257 -68.5t257 68.5t186.5 186.5t68.5 257t-68.5 257t-186.5 186.5t-257 68.5v0zM512 -95q-98 0 -187 37.5t-153 101.5t-101.5 153t-37.5 187t37.5 187t101.5 153t153 101.5t187 37.5
t187 -37.5t153 -101.5t101.5 -153t37.5 -187t-37.5 -187t-101.5 -153t-153 -101.5t-187 -37.5v0zM733 392l-340 197q-6 6 -12 0q-3 0 -5.5 -2.5t-2.5 -5.5v-394l4 -8q6 -6 12 0l344 197q4 4 4 8q3 3 1.5 5.5t-5.5 2.5v0zM733 392z" />
    <glyph glyph-name="uniE61D" unicode="&#xe61d;" 
d="M893 509q0 18 -11 31q-47 54 -178 207q-3 4 -9 4q-155 0 -321 1q-30 0 -53 -12q-50 -26 -59 -78q0 -1 -2 -24h-34q-27 0 -50 -15q-53 -35 -53 -99v-276v-276q0 -32 13 -55q35 -62 100 -62h406q30 0 53 12q59 31 60 95l1 5h22q20 0 38 6q33 12 55 42.5t22 67.5v426z
M700 689v4l1 1l1 -1l1 -1l1 -1l1 -1l1 -1v-1l1 -1l1 -1l1 -1l1 -1l1 -1v-1l2 -2l1 -1v-1l1 -1l1 -1l1 -1l1 -1v-1l1 -1l1 -1l1 -1l1 -1v-1l1 -1l1 -1l1 -1l1 -1l1 -1v-1l1 -1l1 -1l1 -1l1 -1v-1l1 -1l1 -1l1 -1l1 -1l1 -1v-1l1 -1l1 -1l1 -1l1 -1v-1l1 -1l1 -1l1 -1l1 -1v-1
l1 -1l1 -1l1 -1l1 -1l1 -1v-1l1 -1l1 -1l1 -1l1 -1v-1l1 -1l1 -1l1 -1l1 -1v-1l1 -1h1l1 -1l1 -1l1 -1v-1l1 -1l1 -1l1 -1l1 -1v-1l1 -1l1 -1l1 -1l1 -1l1 -1v-1l1 -1l1 -1l1 -1l1 -1v-1l1 -1l1 -1l1 -1l1 -1v-1l1 -1l1 -1l1 -1l1 -1l1 -1v-1l1 -1l1 -1l1 -1l1 -1v-1l1 -1
l1 -1l1 -1l1 -1l1 -1v-1l1 -1l1 -1l1 -1l1 -1v-1l1 -1l1 -1l1 -1l1 -1l1 -1v-1l1 -1l1 -1l1 -1l1 -1v-1l1 -1l1 -1l1 -1l1 -1v-1l1 -1l1 -1l1 -1l1 -1l1 -1v-1l1 -1l1 -1l1 -1l1 -1v-1l1 -1l1 -1l1 -1l1 -1l1 -1v-1l1 -1l1 -1l1 -1l1 -1v-1l1 -1l1 -1l1 -1l1 -1l1 -1v-1
l1 -1l1 -1l1 -1l1 -1l1 -2h-6q-63 0 -68 -1q-24 -1 -39 20q-25 34 -25 72v71zM670 -84q-12 -5 -25 -5h-411q-23 0 -39.5 17t-16.5 39q-1 194 0 561q0 22 16 38.5t38 16.5h28v-6v-493q0 -37 22 -68t55 -43q17 -6 36 -6h321h4h2q2 -15 -6 -29t-24 -22zM838 466v-385
q0 -21 -13.5 -37.5t-34.5 -20.5h-9h-409q-23 0 -40 17t-17 40v559q0 23 17 40t40 17h128h140q6 0 6 -6v-52v-51q-1 -37 21 -67.5t56 -42.5q16 -5 35 -5q7 -1 74 -1h6v-5zM698 219h-242q-2 0 -6 -1q-12 -1 -19.5 -11.5t-3.5 -23.5q5 -20 29 -20h121h118h8q15 2 22 15t0 26
q-8 15 -27 15zM456 303h121h114h12q11 1 18.5 9.5t6.5 20.5q-1 11 -9 18.5t-21 7.5h-243q-2 0 -5 -1q-13 -1 -20 -11.5t-3 -23.5q5 -20 29 -20z" />
    <glyph glyph-name="uniE61E" unicode="&#xe61e;" 
d="M65 610h280v56h-280v-56zM65 385h280v56h-280v-56zM65 161h280v56h-280v-56zM951 498l-221 213q-8 8 -20 8t-21 -8l-220 -213q-9 -8 -9 -20t8.5 -20t20.5 -8t21 8l171 166v-547q0 -12 8.5 -20t20.5 -8t20.5 8t8.5 20v547l171 -166q8 -8 20 -8t20.5 8t8.5 20t-8 20z" />
    <glyph glyph-name="uniE61F" unicode="&#xe61f;" 
d="M65 102h280v56h-280v-56zM65 327h280v56h-280v-56zM65 551h280v56h-280v-56zM950.5 310q-8.5 8 -20.5 8t-20 -8l-171 -166v547q0 12 -8.5 20t-20.5 8t-20.5 -8t-8.5 -20v-547l-171 166q-9 8 -21 8t-20.5 -8t-8.5 -20t9 -20l220 -213q9 -8 21 -8t20 8l221 213q8 8 8 20
t-8.5 20z" />
    <glyph glyph-name="uniE620" unicode="&#xe620;" 
d="M269 604.5q0 69.5 50 119.5t119.5 50t119.5 -50t50 -119.5t-50 -119.5t-119.5 -50t-119.5 50t-50 119.5zM160 0q-22 0 -36.5 15t-14.5 36q0 127 86 221t211 106v0h32h4q86 7 121 38l13 10q41 33 63.5 79.5t22.5 99.5q0 94 -67 160.5t-163 66.5q-89 0 -155 -67t-66 -160
q0 -53 22.5 -99.5t64.5 -79.5l16 -10l-16 -6q-111 -44 -179 -141.5t-68 -217.5q0 -45 31.5 -77t77.5 -32h291q9 0 17.5 8t8.5 21q0 15 -8 22t-18 7h-291zM899 128q-36 -5 -59.5 -31.5t-23.5 -64.5q0 -16 6 -29l-41 -22l-1 1h-1l-1 1l-1 1l-1 2l-1 1l-1 1l-1 1l-1 1l-1 1
l-1 1l-1 1l-1 1l-1 1l-1 1l-1 1q-29 19 -54.5 19t-54.5 -19q-2 -2 -6 -5t-6.5 -5.5t-3.5 -5.5l-38 22q6 13 6 29q0 36 -23.5 63.5t-59.5 32.5q0 2 -1.5 13.5t-1.5 18.5q0 5 1.5 16t1.5 16q36 5 59.5 31.5t23.5 64.5q0 16 -6 29l41 22q10 -9 16 -13q29 -19 51.5 -19t51.5 19
q3 4 8.5 8t7.5 5l41 -22q-6 -13 -6 -29q0 -36 23.5 -63.5t59.5 -32.5q0 -2 1.5 -13.5t1.5 -18.5q2 -4 2 -9.5t-1 -12.5t-1 -10zM944 208q-2 12 -10.5 20.5t-18.5 8.5h-3q-22 0 -36.5 14.5t-14.5 36.5q0 4 1.5 11t1.5 8q5 12 1 25t-14 20l-57 32h-16q-21 0 -29 -13
q-23 -22 -39 -22q-4 0 -10.5 2.5t-11 5.5t-11.5 8t-8 6q-13 13 -29 13q-10 0 -13 -3l-61 -32q-9 -8 -13 -20.5t1 -24.5q3 -10 3 -19q0 -22 -15 -36.5t-36 -14.5h-4q-9 0 -17.5 -8.5t-10.5 -20.5q0 -1 -2 -8.5t-3.5 -18.5t-1.5 -21q0 -42 7 -48q2 -12 10.5 -20.5t17.5 -8.5h4
q21 0 36 -15t15 -36q0 -4 -1.5 -11t-1.5 -8q-5 -13 -1 -25.5t13 -19.5l58 -32q6 3 16 3q20 0 29 13q25 25 41 25q9 0 23 -8.5t19 -16.5q13 -13 29 -13q9 0 16 3l57 32q10 8 14 20.5t-1 24.5q-3 10 -3 19q0 22 15 36.5t36 14.5h3q10 0 18.5 8.5t10.5 20.5q7 26 7 48
q-10 24 -10 45zM710.5 118q-16.5 0 -29 12.5t-12.5 29.5t12.5 29.5t29 12.5t29 -12.5t12.5 -29.5t-12.5 -29.5t-29 -12.5zM726 246q-45 10 -78.5 -23.5t-23.5 -81.5q5 -27 24.5 -46.5t45.5 -24.5q46 -9 79 24t24 79q-5 28 -24.5 48.5t-46.5 24.5z" />
    <glyph glyph-name="uniE621" unicode="&#xe621;" 
d="M512 17l-512 511l55 55h914l55 -55z" />
    <glyph glyph-name="uniE622" unicode="&#xe622;" 
d="M214 661h593q61 -4 65 -65v-612q0 -50 -57 -50h-601q-69 4 -69 54v604q-3 65 69 69zM181 592v-593q0 -25 40 -29h579q36 0 36 40v579q-7 32 -39 36h-572q-44 -4 -44 -33z" />
    <glyph glyph-name="uniE623" unicode="&#xe623;" 
d="M774 -63q1 -1 1 1h-1v-1zM512 748q-91 0 -174 -35.5t-143 -95.5t-95.5 -143t-35.5 -174t35.5 -174t95.5 -143t143 -95.5t174 -35.5q145 0 262 85l1 1l16 12l2 2q61 51 99 112q68 108 68 236q0 91 -35.5 174t-95.5 143t-143 95.5t-174 35.5zM855 87q-20 -32 -41 -56
q-9 -10 -22 -22t-21 -18l-7 -7q-111 -88 -252 -88q-110 0 -203 54t-147 147t-54 203t54 203t147 147t203 54t203 -54t147 -147t54 -203q0 -116 -61 -213zM375 512l-133 -48q-9 -4 -13 -12.5t-0.5 -17t12 -12.5t17.5 -1l133 48q9 4 13 12.5t0.5 17t-12 12.5t-17.5 1zM322 419
q-23 0 -38.5 -16t-15.5 -38.5t15.5 -38.5t38.5 -16t38.5 16t15.5 38.5t-15.5 38.5t-38.5 16zM784 464l-133 48q-9 3 -17.5 -1t-12 -12.5t0.5 -17t13 -12.5l134 -48q8 -3 16.5 1t12 12.5t-0.5 17t-13 12.5zM704.5 419q-22.5 0 -38.5 -16t-16 -38.5t16 -38.5t38.5 -16t38.5 16
t16 38.5t-16 38.5t-38.5 16zM636 167l-97 -69q-7 -6 -7.5 -15.5t5.5 -16.5t15.5 -7.5t16.5 5.5l97 69q7 6 7.5 15t-5.5 16.5t-15.5 8t-16.5 -5.5z" />
    <glyph glyph-name="uniE624" unicode="&#xe624;" 
d="M318 495q-17 5 -38.5 0.5t-26.5 -20.5q1 -4 0 -6t2.5 -4t5.5 -3.5t7 -2.5t8.5 -2t9.5 -2t9 -2q9 -2 15.5 -5.5t9 -6.5t1.5 -5q-2 -2 -11 -1.5t-20 1.5t-24 -3q-16 -6 -16 -19t11 -16q5 -3 15.5 -3t30.5 -1t41 -4q40 -7 45 20q4 25 -22 52t-53 33zM597 346v0v1q0 7 -5 12
t-11.5 5t-11.5 -5t-5 -12v-1v0q0 -21 -15 -35.5t-36 -14.5t-35.5 14.5t-14.5 35.5h-1l1 1q0 7 -5 12t-12 5t-12 -5t-5 -12v-1v0q0 -35 24.5 -59.5t59.5 -24.5t59.5 24.5t24.5 59.5v1v-1zM707 506q-28 0 -48 -19.5t-20 -47.5t20 -48t48 -20t47.5 20t19.5 48t-19.5 47.5
t-47.5 19.5zM512 896q-139 0 -257 -68.5t-186.5 -186.5t-68.5 -257t68.5 -257t186.5 -186.5t257 -68.5t257 68.5t186.5 186.5t68.5 257t-68.5 257t-186.5 186.5t-257 68.5zM512 -87q-96 0 -183 37.5t-150 100.5t-100.5 150t-37.5 183t37.5 183t100.5 150t150 100.5t183 37.5
t183 -37.5t150 -100.5t100.5 -150t37.5 -183t-37.5 -183t-100.5 -150t-150 -100.5t-183 -37.5z" />
    <glyph glyph-name="uniE625" unicode="&#xe625;" 
d="M512 420l-326 326q-7 7 -18 7.5t-18.5 -7t-7 -18.5t7.5 -18l326 -326l-326 -326q-7 -7 -7.5 -18t7 -18.5t18.5 -7t18 7.5l326 326l326 -326q7 -7 18 -7.5t18.5 7t7 18.5t-7.5 18l-326 326l326 326q7 7 7.5 18t-7 18.5t-18.5 7t-18 -7.5z" />
    <glyph glyph-name="uniE626" unicode="&#xe626;" 
d="M858 639h-1h-454q-55 0 -93 -38q-7 -7 -7 -16t6.5 -15.5t15.5 -6.5t16 7q25 25 62 25h356q-33 -37 -33 -86v-424q0 -36 -25.5 -61t-61.5 -25t-61.5 25t-25.5 61q0 9 -6.5 15.5t-15.5 6.5h-215v99q0 9 -6.5 15.5t-15.5 6.5t-15.5 -6.5t-6.5 -15.5v-99h-196
q-9 0 -15.5 -6.5t-6.5 -15.5q0 -54 38.5 -92t92.5 -38h455q54 0 92.5 38t38.5 92v402h197q9 0 15.5 6t6.5 16q0 54 -38.5 92t-92.5 38zM513 459h144q7 0 12 5t5 11.5t-5 11.5t-12 5h-144q-7 0 -11.5 -5t-4.5 -11.5t4.5 -11.5t11.5 -5zM501 388q5 -6 12 -6h144q7 0 12 5
t5 11.5t-5 11.5t-12 5h-144q-8 0 -13 -8q-3 -4 -3 -8q0 -6 4 -11zM497 320q2 -14 16 -14h144q7 0 12 4.5t5 11t-5 11.5t-12 5h-144q-7 0 -11.5 -5t-4.5 -11v-2zM466.5 235.5q5.5 5.5 1.5 12.5l-67 140l-90 -90l143 -65q7 -3 12.5 2.5zM108 499l180 -179l91 90l-181 179z
M85 522l90 90l-10 11q-19 18 -45.5 18t-45 -18.5t-18.5 -45t18 -44.5z" />
    <glyph glyph-name="uniE627" unicode="&#xe627;" 
d="M693 463q15 0 35 -3q-24 110 -128 182t-237 72q-98 0 -181 -40.5t-132 -111.5t-49 -155q0 -143 145 -244l-36 -109l126 63q6 -1 25.5 -5t27 -5t22.5 -3.5t27 -3.5t25 -1q15 0 34 2q-12 38 -12 75q0 119 89.5 203t218.5 84zM498 561q21 0 33.5 -12.5t12.5 -33t-12.5 -33
t-33.5 -12.5t-37.5 13t-16.5 32.5t16.5 32.5t37.5 13zM245 470q-21 0 -37.5 13t-16.5 32.5t16.5 32.5t37.5 13t33 -12.5t12 -33t-12 -33t-33 -12.5zM1023 181q0 70 -43 131t-113.5 96t-150.5 35q-129 0 -218.5 -76.5t-89.5 -185.5t89.5 -186t218.5 -77q36 0 108 19l99 -55
l-27 91q127 95 127 208zM616 226q-14 0 -25 11.5t-11 25t11 24.5t25 11q20 0 32.5 -11t12.5 -25t-12.5 -25t-32.5 -11zM815 226q-14 0 -25 11.5t-11 25t11 24.5t25 11q19 0 32 -11t13 -25t-13 -25t-32 -11z" />
    <glyph glyph-name="uniE628" unicode="&#xe628;" 
d="M588 226q-76 -61 -104 -77q-32 -19 -67 -30q-30 -9 -53 -11.5t-38 -3.5q-2 -1 -4 -1h-11q-40 0 -74.5 9.5t-60.5 27.5t-41 45.5t-15 64.5q1 31 17.5 57t42.5 44t58 27t64 8t61 -7.5t56 -15t51 -18.5t46 -19q8 -4 17 -7q10 -4 20 -7q21 26 35 51.5t23.5 46.5t14.5 35.5
t6 19.5h-310v35h146v79h-204v35h204v64q0 6 7.5 10t16.5 6q11 2 24 2h55v-82h210v-35h-210v-79h167v0v0q-5 -32 -17 -68q-10 -30 -29.5 -69.5t-52.5 -81.5q19 -8 51 -22t121 -43t166 -41q45 100 45 210q0 103 -40.5 197.5t-108.5 163t-162.5 109t-198.5 40.5t-198.5 -40.5
t-162.5 -109t-108.5 -163t-40.5 -198t40.5 -198t108.5 -163t162.5 -108.5t198.5 -40q129 0 240 59.5t181 161.5q-66 15 -142 44t-203 86zM187 249q-1 -25 9.5 -43.5t24.5 -28t32 -15t28 -7t18 -1.5q59 -2 123 36q6 4 13 9t13.5 10t14 11t13.5 11.5t12 10.5t10 8.5t7 6.5l3 3
q3 2 5 5q-20 11 -40 21q-92 44 -142 49q-40 4 -70 -4.5t-45 -24.5t-22 -30.5t-7 -26.5z" />
    <glyph glyph-name="uniE629" unicode="&#xe629;" horiz-adv-x="1030" 
d="M0 209l8 -4zM858 14l-287 286l287 286q11 11 11 27t-11 27t-27 11t-27 -11l-286 -286l-286 286q-12 11 -27.5 11t-26.5 -11t-11 -27t11 -27l286 -286l-286 -286q-11 -11 -11 -27t11 -27t26.5 -11t27.5 11l286 286l286 -286q11 -11 27 -11t27 11t11 27t-11 27z" />
    <glyph glyph-name="uniE62A" unicode="&#xe62a;" 
d="M451 89q-62 0 -121 47l-182 182q-10 10 -10 23.5t10 23.5t23.5 10t23.5 -10l182 -182q27 -27 74 -27q34 0 74 27l432 445q10 10 23.5 10t23.5 -10t10 -23.5t-10 -23.5l-431 -445q-21 -21 -54 -34t-68 -13z" />
    <glyph glyph-name="uniE62B" unicode="&#xe62b;" 
d="M512 -113q-101 0 -193 39.5t-158.5 106t-106 158.5t-39.5 193t39.5 193t106 158.5t158.5 106t193 39.5t193 -39.5t158.5 -106t106 -158.5t39.5 -193t-39.5 -193t-106 -158.5t-158.5 -106t-193 -39.5zM512 819q-88 0 -168.5 -34.5t-139 -93t-93 -139t-34.5 -168.5
t34.5 -168.5t93 -139t139 -93t168.5 -34.5t168.5 34.5t139 93t93 139t34.5 168.5t-34.5 168.5t-93 139t-139 93t-168.5 34.5zM556 384l132 -132q9 -9 9 -22t-9 -22t-22 -9t-22 9l-132 132l-132 -132q-9 -10 -22 -10t-22.5 9.5t-9.5 22.5t9 22l133 132l-132 132q-9 9 -9 22
t9 22t22 9t22 -9l132 -132l133 133q9 10 22 10t22.5 -9.5t9.5 -22.5t-10 -22z" />
    <glyph glyph-name="uniE62C" unicode="&#xe62c;" 
d="M194 381q-9 9 -9 21t8.5 20.5t20.5 8.5t20 -8l193 -187l363 357q8 9 20 8.5t20.5 -9t8.5 -20t-9 -20.5l-383 -377q-8 -9 -20 -9t-20 9l-213 206v0zM194 381zM512 896q104 0 197.5 -39.5t164.5 -110.5t110.5 -164.5t39.5 -197.5t-39.5 -197.5t-110.5 -164.5t-164.5 -110.5
t-197.5 -39.5t-197.5 39.5t-164.5 110.5t-110.5 164.5t-39.5 197.5t39.5 197.5t110.5 164.5t164.5 110.5t197.5 39.5v0zM838 710q-64 64 -148 99.5t-178 35.5t-178 -35.5t-148 -99.5t-99.5 -148t-35.5 -178t35.5 -178t99.5 -148t148 -99.5t178 -35.5t178 35.5t148 99.5
t99.5 148t35.5 178t-35.5 178t-99.5 148v0zM838 710z" />
    <glyph glyph-name="uniE62D" unicode="&#xe62d;" 
d="M276.5 -55.5q-10.5 10.5 -10.5 25.5t11 26l395 396l-389 389q-10 11 -10 25.5t10.5 25t25 10.5t24.5 -11l408 -408q2 -1 4 -4v-1q2 -1 3 -2q11 -11 11 -26q0 -13 -9 -24l-422 -421q-11 -11 -26 -11t-25.5 10.5z" />
    <glyph glyph-name="uniE62E" unicode="&#xe62e;" 
d="M296.5 276q-10.5 0 -18 -8.5t-7.5 -19.5v-231q0 -12 7.5 -20t18 -8t18 8t7.5 20v231q0 11 -7.5 19.5t-18 8.5zM448.5 326q-10.5 0 -18 -8t-7.5 -19v-283q0 -11 7.5 -19t18 -8t18 8t7.5 19v283q0 11 -7.5 19t-18 8zM600.5 377q-10.5 0 -18 -8t-7.5 -18v-336
q0 -11 7.5 -18.5t18 -7.5t18 7.5t7.5 18.5v336q0 10 -7.5 18t-18 8zM752.5 478q-10.5 0 -18 -8t-7.5 -19v-435q0 -11 7.5 -19t18 -8t17.5 8t7 19v435q0 11 -7 19t-17.5 8zM788 597q-5 11 -18 13h-2h-5h-128l49 -49l-161 -106l-81 52q-17 9 -29 -7l-80 -81l-64 49
q-9 5 -18.5 3t-14 -10t-2 -17t11.5 -14l79 -60q11 -7 22 2l1 1l2 2l83 84l78 -48q16 -8 28 -2l1 1l235 155q10 5 14 14.5t-1 17.5z" />
    <glyph glyph-name="uniE62F" unicode="&#xe62f;" 
d="M835 740h-646q-26 0 -44 -18.5t-18 -43.5v-782q0 -25 18 -43t44 -18h646q26 0 44 18t18 43v782q0 25 -18 43.5t-44 18.5zM862 -82q0 -19 -13.5 -32.5t-32.5 -13.5h-607q-20 0 -33.5 13.5t-13.5 32.5v738q0 19 13.5 32.5t33.5 13.5h607q19 0 32.5 -13.5t13.5 -32.5v-738z
M784 196q0 -8 -5 -13t-13 -5h-508q-8 0 -13 5.5t-5 12.5t5.5 12t12.5 5h508q8 1 13 -4.5t5 -12.5v0zM784 -4q0 -7 -5 -12t-13 -5h-508q-8 0 -13 5t-5 12q0 8 5.5 13t12.5 5h508q8 0 13 -5t5 -13v0zM784 595q0 -9 -6 -15t-15 -6h-211q-8 0 -14.5 6t-6.5 15t6.5 15t14.5 6h211
q9 0 15 -6t6 -15v0zM784 395q0 -8 -6 -14.5t-15 -6.5h-211q-8 0 -14.5 6.5t-6.5 14.5q0 9 6.5 15t14.5 6h211q9 0 15 -6t6 -15v0zM449 450h-80v74h80q8 0 13.5 5.5t5.5 13t-5.5 13t-13.5 5.5h-31l36 35q5 6 5 13.5t-5 12.5t-12.5 5t-12.5 -5l-62 -61h-32l-61 61
q-6 5 -13.5 5t-12.5 -5t-5 -12.5t5 -13.5l36 -35h-32q-8 0 -13 -5.5t-5 -13t5 -13t13 -5.5h80v-74h-80q-8 0 -13 -5.5t-5 -13t5 -13t13 -5.5h80v-92q0 -8 5.5 -13.5t13 -5.5t13 5.5t5.5 13.5v92h80q8 0 13.5 5.5t5.5 13t-5.5 13t-13.5 5.5zM449 450z" />
    <glyph glyph-name="uniE630" unicode="&#xe630;" 
d="M739 626h75v-75q0 -6 5.5 -10.5t14 -4.5t14 4.5t5.5 10.5v75h75q6 0 10.5 6t4.5 14t-4.5 13.5t-10.5 5.5h-75v75q0 6 -5.5 10.5t-14 4.5t-14 -4.5t-5.5 -10.5v-75h-75q-6 0 -10.5 -5.5t-4.5 -13.5t4.5 -14t10.5 -6zM665 360q10 0 17 6t7 14.5t-7 14.5t-17 6h-140v21
l135 130q6 6 5.5 14.5t-8 14t-17.5 5t-17 -6.5l-122 -118l-114 118q-7 6 -17 7t-17.5 -4.5t-8.5 -14t5 -14.5l128 -131v-21h-125q-10 0 -17 -6t-7 -14.5t7 -14.5t17 -6h125v-33h-125q-10 0 -17 -6t-7 -14.5t7 -14.5t17 -6h125v-106q0 -9 7 -15t17 -6t17 6t7 15v106h140
q10 0 17 6t7 14.5t-7 14.5t-17 6h-140v33h140zM944 493q-2 8 -9.5 12.5t-15.5 2t-12.5 -9.5t-2.5 -16q12 -49 12 -100q0 -110 -54.5 -204t-148.5 -149t-204.5 -55t-204.5 55t-148.5 149t-54.5 204.5t54.5 204.5t148.5 148.5t205 54.5q90 0 171 -37q8 -4 16 -1t11.5 10.5
t0.5 15.5t-11 12q-89 42 -188 42q-90 0 -172 -34t-146 -98t-98 -146t-34 -172t34 -172t98 -145.5t146 -97.5t172 -34t172 34t145.5 97.5t97.5 145.5t34 172q0 57 -14 111z" />
    <glyph glyph-name="uniE632" unicode="&#xe632;" 
d="M891 381q13 0 22 -9t9 -22v-81q0 -13 -9 -22t-22 -9h-186q-13 0 -22 9t-9 22v81q0 13 9 22t22 9h186zM891 420h-186q-29 0 -49.5 -20.5t-20.5 -49.5v-81q0 -29 20.5 -49.5t49.5 -20.5h186q29 0 49.5 20.5t20.5 49.5v81q0 29 -20.5 49.5t-49.5 20.5zM342 329l-88 93
q-5 6 -13 6.5t-14 -5t-6.5 -13.5t5.5 -14l62 -67h-201q-8 0 -14 -6t-6 -14t6 -13.5t14 -5.5h197l-66 -67q-6 -5 -6 -13.5t5.5 -14t13.5 -5.5t14 6l96 95q8 8 8 19t-7 19zM105 391v165q0 46 33 79t79 33h475h1h49q47 0 79.5 -33t32.5 -79v-146q0 -8 5.5 -14t13.5 -6t14 6
t6 14v146q0 62 -44 106.5t-107 44.5h-36l-48 124l-369 -123q-1 -1 -2 -1h-70q-63 0 -107 -44.5t-44 -106.5v-165q0 -8 6 -13.5t14 -5.5t13.5 5.5t5.5 13.5zM635 783l29 -76h-255zM888 223q-8 0 -14 -5.5t-6 -13.5v-116q0 -46 -32.5 -79t-78.5 -33h-526q-46 0 -78.5 33
t-32.5 79v142q0 8 -6 13.5t-14 5.5t-13.5 -5.5t-5.5 -13.5v-142q0 -63 44 -107t106 -44h526q62 0 106 44t44 107v116q0 8 -5.5 13.5t-13.5 5.5zM876 307.5q0 -6.5 4.5 -11.5t11.5 -5t12 5t5 11.5t-5 11.5t-12 5t-11.5 -5t-4.5 -11.5z" />
  </font>
</defs>
</svg>
